name rise44.8762peak52.3436fall86.788.mot
datacolumns 19
datarows 29
range 20.25158400000000 20.29825600000000
endheader
time	ground_force1_vx	ground_force1_vy	ground_force1_vz	ground_force1_px	ground_force1_py	ground_force1_pz	ground_force2_vx	ground_force2_vy	ground_force2_vz	ground_force2_px	ground_force2_py	ground_force2_pz	ground_torque1_x	ground_torque1_y	ground_torque1_z	ground_torque2_x	ground_torque2_y	ground_torque2_z	
20.25158400000000	-7.98988300000000	41.37931900000000	-12.78183700000000	0.21531300000000	0.00000000000000	0.14345600000000	-40.60373800000000	794.83166100000005	-64.73742799999999	0.08098700000000	0.00000000000000	-0.08568600000000	0.00000000000000	-4.77272400000000	0.00000000000000	0.00000000000000	-17.28415600000000	0.00000000000000	
20.25325600000000	-8.87559900000000	48.62003600000000	-14.34162700000000	0.22141300000000	0.00000000000000	0.14492300000000	-41.39471900000000	792.17854100000000	-64.42345000000000	0.08030700000000	0.00000000000000	-0.08556700000000	0.00000000000000	-5.45984600000000	0.00000000000000	0.00000000000000	-17.26203900000000	0.00000000000000	
20.25491700000000	-9.63972100000000	55.98127700000000	-15.74700500000000	0.22692200000000	0.00000000000000	0.14623800000000	-42.19831100000000	789.37854600000003	-64.08181200000000	0.07963700000000	0.00000000000000	-0.08544200000000	0.00000000000000	-6.10525100000000	0.00000000000000	0.00000000000000	-17.24126600000000	0.00000000000000	
20.25658700000000	-10.26033700000000	63.36973300000000	-16.96384200000000	0.23193200000000	0.00000000000000	0.14742500000000	-43.01405200000000	786.43091500000003	-63.71215000000000	0.07897900000000	0.00000000000000	-0.08531200000000	0.00000000000000	-6.69316800000000	0.00000000000000	0.00000000000000	-17.22180900000000	0.00000000000000	
20.25826000000000	-10.72347800000000	70.71374500000000	-17.96962300000000	0.23651700000000	0.00000000000000	0.14850500000000	-43.84138300000000	783.33486800000003	-63.31412900000000	0.07833200000000	0.00000000000000	-0.08517600000000	0.00000000000000	-7.21211100000000	0.00000000000000	0.00000000000000	-17.20362500000000	0.00000000000000	
20.25993500000000	-11.02311600000000	77.96562200000000	-18.75357500000000	0.24073400000000	0.00000000000000	0.14949500000000	-44.67965400000000	780.08960100000002	-62.88745500000000	0.07769600000000	0.00000000000000	-0.08503600000000	0.00000000000000	-7.65515100000000	0.00000000000000	0.00000000000000	-17.18665000000000	0.00000000000000	
20.26160400000000	-11.16051800000000	85.10160600000000	-19.31580900000000	0.24463100000000	0.00000000000000	0.15040700000000	-45.52811500000000	776.69428400000004	-62.43186900000000	0.07707100000000	0.00000000000000	-0.08489000000000	0.00000000000000	-8.01976400000000	0.00000000000000	0.00000000000000	-17.17080400000000	0.00000000000000	
20.26327200000000	-11.14312100000000	92.11987499999999	-19.66572100000000	0.24824500000000	0.00000000000000	0.15125200000000	-46.38591800000000	773.14805699999999	-61.94715500000000	0.07645700000000	0.00000000000000	-0.08473800000000	0.00000000000000	-8.30734700000000	0.00000000000000	0.00000000000000	-17.15598800000000	0.00000000000000	
20.26493300000000	-10.98309000000000	99.03708000000000	-19.81991000000000	0.25160900000000	0.00000000000000	0.15204000000000	-47.25211600000000	769.45003099999997	-61.43314100000000	0.07585300000000	0.00000000000000	-0.08458200000000	0.00000000000000	-8.52248800000000	0.00000000000000	0.00000000000000	-17.14208400000000	0.00000000000000	
20.26659100000000	-10.69575000000000	105.88397900000000	-19.79986100000000	0.25474900000000	0.00000000000000	0.15277600000000	-48.12566100000000	765.59928400000001	-60.88970000000000	0.07526000000000	0.00000000000000	-0.08442000000000	0.00000000000000	-8.67210500000000	0.00000000000000	0.00000000000000	-17.12895500000000	0.00000000000000	
20.26825400000000	-10.29802500000000	112.70066799999999	-19.62964400000000	0.25768600000000	0.00000000000000	0.15346800000000	-49.00540600000000	761.59486600000002	-60.31675500000000	0.07467800000000	0.00000000000000	-0.08425300000000	0.00000000000000	-8.76453500000000	0.00000000000000	0.00000000000000	-17.11644900000000	0.00000000000000	
20.26992100000000	-9.80703300000000	119.53187699999999	-19.33379100000000	0.26043900000000	0.00000000000000	0.15412100000000	-49.89010300000000	757.43579599999998	-59.71427900000000	0.07410600000000	0.00000000000000	-0.08408000000000	0.00000000000000	-8.80866900000000	0.00000000000000	0.00000000000000	-17.10439200000000	0.00000000000000	
20.27160900000000	-9.23889700000000	126.42269600000000	-18.93550900000000	0.26302400000000	0.00000000000000	0.15473800000000	-50.77840800000000	753.12106900000003	-59.08229900000000	0.07354300000000	0.00000000000000	-0.08390300000000	0.00000000000000	-8.81318700000000	0.00000000000000	0.00000000000000	-17.09259600000000	0.00000000000000	
20.27325900000000	-8.60784500000000	133.41498899999999	-18.45530000000000	0.26545500000000	0.00000000000000	0.15532400000000	-51.66887700000000	748.64965700000005	-58.42089600000000	0.07299100000000	0.00000000000000	-0.08372000000000	0.00000000000000	-8.78594400000000	0.00000000000000	0.00000000000000	-17.08085400000000	0.00000000000000	
20.27492600000000	-7.92561600000000	140.54465700000000	-17.91002700000000	0.26774200000000	0.00000000000000	0.15588200000000	-52.55997400000000	744.02051900000004	-57.73020900000000	0.07244800000000	0.00000000000000	-0.08353200000000	0.00000000000000	-8.73353000000000	0.00000000000000	0.00000000000000	-17.06894300000000	0.00000000000000	
20.27660000000000	-7.20116000000000	147.83980099999999	-17.31242500000000	0.26989500000000	0.00000000000000	0.15641400000000	-53.45006600000000	739.23260700000003	-57.01043800000000	0.07191400000000	0.00000000000000	-0.08333900000000	0.00000000000000	-8.66100100000000	0.00000000000000	0.00000000000000	-17.05662600000000	0.00000000000000	
20.27825600000000	-6.44059600000000	155.31977900000001	-16.67100600000000	0.27192400000000	0.00000000000000	0.15692300000000	-54.33743600000000	734.28487099999995	-56.26184000000000	0.07138800000000	0.00000000000000	-0.08314200000000	0.00000000000000	-8.57178400000000	0.00000000000000	0.00000000000000	-17.04364900000000	0.00000000000000	
20.27992000000000	-5.64740700000000	162.99504500000000	-15.99029800000000	0.27383600000000	0.00000000000000	0.15741000000000	-55.22027700000000	729.17627700000003	-55.48473800000000	0.07087200000000	0.00000000000000	-0.08293900000000	0.00000000000000	-8.46771800000000	0.00000000000000	0.00000000000000	-17.02974500000000	0.00000000000000	
20.28160600000000	-4.82278600000000	170.86766000000000	-15.27134400000000	0.27563700000000	0.00000000000000	0.15787800000000	-56.09670200000000	723.90581299999997	-54.67951500000000	0.07036300000000	0.00000000000000	-0.08273200000000	0.00000000000000	-8.34921900000000	0.00000000000000	0.00000000000000	-17.01463500000000	0.00000000000000	
20.28325200000000	-3.96609800000000	178.93229500000001	-14.51236600000000	0.27733400000000	0.00000000000000	0.15832800000000	-56.96474500000000	718.47250399999996	-53.84661900000000	0.06986200000000	0.00000000000000	-0.08252000000000	0.00000000000000	-8.21552200000000	0.00000000000000	0.00000000000000	-16.99802600000000	0.00000000000000	
20.28491700000000	-3.07539800000000	187.17757700000001	-13.70952800000000	0.27893000000000	0.00000000000000	0.15876100000000	-57.82236900000000	712.87542499999995	-52.98656400000000	0.06936800000000	0.00000000000000	-0.08230400000000	0.00000000000000	-8.06497400000000	0.00000000000000	0.00000000000000	-16.97961700000000	0.00000000000000	
20.28658600000000	-2.14795100000000	195.58760400000000	-12.85770700000000	0.28043000000000	0.00000000000000	0.15917800000000	-58.66746700000000	707.11371499999996	-52.09992800000000	0.06888000000000	0.00000000000000	-0.08208300000000	0.00000000000000	-7.89534200000000	0.00000000000000	0.00000000000000	-16.95909600000000	0.00000000000000	
20.28825600000000	-1.18072500000000	204.14348799999999	-11.95122800000000	0.28183900000000	0.00000000000000	0.15958100000000	-59.49787400000000	701.18659200000002	-51.18735300000000	0.06839900000000	0.00000000000000	-0.08185700000000	0.00000000000000	-7.70412000000000	0.00000000000000	0.00000000000000	-16.93614100000000	0.00000000000000	
20.28992500000000	-0.17081100000000	212.82481100000001	-10.98450700000000	0.28316000000000	0.00000000000000	0.15997000000000	-60.31136700000000	695.09336900000005	-50.24954700000000	0.06792400000000	0.00000000000000	-0.08162800000000	0.00000000000000	-7.48879300000000	0.00000000000000	0.00000000000000	-16.91042500000000	0.00000000000000	
20.29161000000000	0.88423300000000	221.61090300000001	-9.95257500000000	0.28439500000000	0.00000000000000	0.16034600000000	-61.10567400000000	688.83346100000006	-49.28728500000000	0.06745300000000	0.00000000000000	-0.08139400000000	0.00000000000000	-7.24706700000000	0.00000000000000	0.00000000000000	-16.88161400000000	0.00000000000000	
20.29326300000000	1.98613100000000	230.48188300000001	-8.85146700000000	0.28554800000000	0.00000000000000	0.16071000000000	-61.87848000000000	682.40640699999994	-48.30140300000000	0.06698700000000	0.00000000000000	-0.08115700000000	0.00000000000000	-6.97704500000000	0.00000000000000	0.00000000000000	-16.84937100000000	0.00000000000000	
20.29492500000000	3.13573500000000	239.41943699999999	-7.67847400000000	0.28662100000000	0.00000000000000	0.16106200000000	-62.62743600000000	675.81187299999999	-47.29280400000000	0.06652600000000	0.00000000000000	-0.08091600000000	0.00000000000000	-6.67733600000000	0.00000000000000	0.00000000000000	-16.81335400000000	0.00000000000000	
20.29658500000000	4.33295700000000	248.40732299999999	-6.43226500000000	0.28761600000000	0.00000000000000	0.16140200000000	-63.35016200000000	669.04966700000000	-46.26245500000000	0.06606800000000	0.00000000000000	-0.08067100000000	0.00000000000000	-6.34712800000000	0.00000000000000	0.00000000000000	-16.77322000000000	0.00000000000000	
20.29825600000000	5.57677400000000	257.43162899999999	-5.11289300000000	0.28853400000000	0.00000000000000	0.16173200000000	-64.04425999999999	662.11974699999996	-45.21138400000000	0.06561200000000	0.00000000000000	-0.08042200000000	0.00000000000000	-5.98619000000000	0.00000000000000	0.00000000000000	-16.72862700000000	0.00000000000000	
